<svg id="color" enable-background="new 0 0 24 24" height="512" viewBox="0 0 24 24" width="512" xmlns="http://www.w3.org/2000/svg"><path d="m13.832 23.971c-.685 0-1.37-.256-1.894-.77l-11.151-10.926c-.518-.508-.814-1.214-.812-1.939l.021-8.616c.002-.948.775-1.722 1.725-1.724l8.616-.021h.005c.724 0 1.429.296 1.935.813l10.925 11.15c1.034 1.056 1.026 2.764-.019 3.809l-7.436 7.436c-.527.525-1.221.788-1.915.788z" fill="#2196f3"/><g fill="#fff"><path d="m5 7c-1.103 0-2-.896-2-2s.897-2 2-2 2 .896 2 2-.897 2-2 2z"/><path d="m11.909 15.893-.53-.53c-.293-.293-.293-.768 0-1.061l3.182-3.183c.292-.292.768-.292 1.061 0l.53.531c1.17 1.169 1.17 3.072 0 4.242s-3.073 1.17-4.243.001zm3.182-3.182-2.122 2.121c.585.585 1.537.585 2.122 0s.585-1.536 0-2.121z"/><path d="m8.904 12.888c-.293-.293-.293-.769 0-1.061l2.298-2.299c.195-.194.195-.512 0-.707s-.512-.195-.707 0l-2.298 2.298c-.292.293-.768.293-1.061 0-.292-.292-.292-.768 0-1.061l2.298-2.298c.78-.78 2.048-.78 2.828 0s.78 2.049 0 2.828l-2.298 2.299c-.292.293-.767.293-1.06.001z"/><path d="m9.965 11.827-1.768-1.769c-.292-.292-.292-.768 0-1.061.293-.293.768-.293 1.061 0l1.768 1.768c.293.293.293.769 0 1.062-.294.292-.769.292-1.061 0z"/></g><path d="m13.939 13.863-.969.969c.292.292.677.439 1.061.439.344 0 .687-.117.965-.351zm-13.397-13.398c-.335.315-.545.761-.546 1.255l-.021 8.616c-.001.726.295 1.432.812 1.939l11.151 10.926c.524.514 1.209.77 1.894.77.694 0 1.388-.263 1.914-.789l3.756-3.756-3.444-3.444c-.572.525-1.3.788-2.028.788-.768 0-1.536-.292-2.121-.877l-.53-.53c-.293-.293-.293-.768 0-1.061l1.499-1.499-1.414-1.414-.423.423c-.005.005-.01.011-.016.016-.005.005-.01.01-.015.014l-1.046 1.046c-.146.146-.339.219-.53.219s-.384-.073-.53-.219c-.293-.293-.293-.769 0-1.061l.53-.53-.707-.708-.53.53c-.146.146-.338.22-.53.22s-.384-.073-.53-.22c-.292-.292-.292-.768 0-1.061l1.051-1.051c.003-.003.006-.007.01-.01l.009-.009.429-.428-2.185-2.185c-.364.385-.88.625-1.451.625-1.103 0-2-.896-2-2 0-.571.24-1.087.625-1.451z" fill="#1d83d4"/><path d="m3.625 3.549c-.385.364-.625.88-.625 1.451 0 1.104.897 2 2 2 .571 0 1.087-.24 1.451-.625z" fill="#dedede"/><path d="m12.878 12.802-1.499 1.499c-.293.293-.293.768 0 1.061l.53.53c.585.585 1.353.877 2.121.877.728 0 1.456-.263 2.028-.788l-1.063-1.063c-.278.234-.622.351-.965.351-.384 0-.768-.146-1.061-.439l.969-.969z" fill="#dedede"/><path d="m9.435 11.297-.53.53c-.293.292-.293.768 0 1.061.146.146.338.219.53.219s.384-.073.53-.219l1.046-1.046c-.144.136-.33.204-.516.204-.192 0-.384-.073-.53-.219zm1.797-.141c.043.229-.02.474-.191.655l.423-.423zm-3.045-2.148-1.051 1.051c-.292.293-.292.769 0 1.061.146.146.338.22.53.22s.384-.073.53-.22l.53-.53-.53-.53c-.288-.29-.292-.758-.009-1.052zm.449-.448-.429.428c.145-.14.332-.209.52-.209.047 0 .094.004.14.013z" fill="#dedede"/><path d="m8.727 8.778c-.187 0-.375.07-.52.209-.003.004-.007.008-.01.011s-.007.007-.01.01c-.283.294-.279.762.01 1.051l.53.53.707.708.53.53c.146.146.338.219.53.219.185 0 .371-.068.516-.204.005-.005.01-.01.015-.014.005-.005.01-.011.016-.016.171-.181.234-.426.191-.655l-2.365-2.366c-.046-.008-.093-.013-.14-.013z" fill="#dedede"/></svg>