<?xml version="1.0"?>
<svg xmlns="http://www.w3.org/2000/svg" id="Capa_1" enable-background="new 0 0 512 512" height="512px" viewBox="0 0 512 512" width="512px" class=""><g><g><g><g><g><g><g><g><g><g><path d="m10.77 329.706c-7.006-23.341-10.77-48.084-10.77-73.706 0-141.385 114.615-256 256-256s256 114.615 256 256-114.615 256-256 256c-82.924 0-156.64-39.428-203.423-100.559z" fill="#a3d4ff" data-original="#A3D4FF" class="" style="fill:#EA0505" data-old_color="#a3d4ff"/></g></g></g></g></g></g></g><path d="m511.999 256.877-178.268-178.267-128.693 128.692 85.595 85.595-237.998 118.619 47.848 47.848c43.109 33.017 97.022 52.636 155.517 52.636 141.092 0 255.525-114.141 255.999-255.123z" fill="#65b1fc" data-original="#65B1FC" class="" style="fill:#EA0505" data-old_color="#65b1fc"/><g><path d="m371.552 322.883-92.656 57.914-65.348-36.226 72.507-19.471c9.459-4.715 14.256-15.472 11.443-25.663-2.947-10.68-13.344-17.526-24.316-16.012l-92.833 2.652c-12.448.355-24.814 2.139-36.856 5.314l-132.738 38.267c8.987 29.964 23.315 57.619 41.879 81.858 34.72-13.963 66.406-26.35 66.406-26.35l120.379 45.451c21.24 7.944 45.024 4.97 63.654-7.96l112.438-80.217-6.853-11.365c-7.878-12.658-24.629-16.356-37.106-8.192z" fill="#d47f6c" data-original="#D47F6C" class="" style="fill:#EA0505" data-old_color="#d47f6c"/></g><g><path d="m408.658 331.076c-7.879-12.659-24.629-16.357-37.106-8.193l-92.656 57.915-65.348-36.226 72.507-19.471c9.459-4.715 14.256-15.472 11.443-25.662-2.947-10.68-13.344-17.526-24.316-16.012l-92.833 2.652c-.028 0-.055.002-.082.003v122.201l59.152 22.333c21.24 7.944 45.024 4.97 63.654-7.96l112.438-80.216z" fill="#bc6253" data-original="#BC6253" class="" style="fill:#EA0505" data-old_color="#bc6253"/></g></g><g><path d="m390.038 134.917h-56.307v-56.307h-72.385v56.307h-56.308v72.385h56.308v56.308h72.385v-56.308h56.307z" fill="#ff5f96" data-original="#FF5F96" class="" style="fill:#EA0505" data-old_color="#ff5f96"/></g><g><path d="m333.731 134.917v-56.307h-36.193v185h36.193v-56.308h56.307v-72.385z" fill="#d72878" data-original="#D72878" class="" style="fill:#EA0505" data-old_color="#d72878"/></g><g><g><path d="m258.153 161.011c0-11.273 9.139-20.412 20.412-20.412 8.608 0 15.972 5.321 18.972 12.86 3.001-7.539 10.364-12.86 18.972-12.86 11.273 0 20.412 9.139 20.412 20.412 0 27.922-39.385 46.692-39.385 46.692s-39.383-20.125-39.383-46.692z" fill="#fff" data-original="#FFF" class="active-path" data-old_color="#fff" style="fill:#EA0505"/></g></g><g><g><path d="m316.511 140.598c-8.608 0-15.972 5.321-18.973 12.86v54.245s39.385-18.77 39.385-46.692c0-11.274-9.139-20.413-20.412-20.413z" fill="#e9edf5" data-original="#E9EDF5" class="" style="fill:#EA0505" data-old_color="#e9edf5"/></g></g></g></g> </svg>
