<svg height="512" viewBox="0 0 512 512" width="512" xmlns="http://www.w3.org/2000/svg" xmlns:xlink="http://www.w3.org/1999/xlink"><linearGradient id="New_Gradient_Swatch_3" gradientUnits="userSpaceOnUse" x1="209.595" x2="495.792" y1="479.792" y2="193.595"><stop offset="0" stop-color="#f6d084"/><stop offset="1" stop-color="#fae4b9"/></linearGradient><linearGradient id="New_Gradient_Swatch_19" gradientUnits="userSpaceOnUse" x1="270.977" x2="401.023" y1="385.023" y2="254.977"><stop offset="0" stop-color="#8f86c0"/><stop offset="1" stop-color="#c7c3df"/></linearGradient><linearGradient id="New_Gradient_Swatch_1" gradientUnits="userSpaceOnUse" x1="-.485" x2="319.098" y1="320.485" y2=".902"><stop offset="0" stop-color="#fbebca"/><stop offset="1" stop-color="#fcf2dc"/></linearGradient><linearGradient id="New_Gradient_Swatch_10" gradientUnits="userSpaceOnUse" x1="110.977" x2="241.023" y1="209.023" y2="78.977"><stop offset="0" stop-color="#72c2c8"/><stop offset="1" stop-color="#b8e1e3"/></linearGradient><g id="_25-Feedback" data-name="25-Feedback"><g id="gradient"><path d="m464 180h-256a44.049 44.049 0 0 0 -44 44v192a44.049 44.049 0 0 0 44 44h220l60.8 45.6a12 12 0 0 0 19.2-9.6v-272a44.049 44.049 0 0 0 -44-44z" fill="url(#New_Gradient_Swatch_3)"/><circle cx="336" cy="320" fill="url(#New_Gradient_Swatch_19)" r="92"/><g fill="#8177b8"><circle cx="364" cy="300" r="12"/><circle cx="308" cy="300" r="12"/><path d="m378.238 345.741c-4.938-8.075-19.388-21.741-42.238-21.741s-37.3 13.666-42.238 21.741a12 12 0 1 0 20.476 12.518c.062-.102 6.694-10.259 21.762-10.259s21.7 10.157 21.762 10.259a12 12 0 1 0 20.476-12.518z"/></g><path d="m304 4h-256a44.049 44.049 0 0 0 -44 44v272a12 12 0 0 0 19.2 9.6l60.8-45.6h220a44.049 44.049 0 0 0 44-44v-192a44.049 44.049 0 0 0 -44-44z" fill="url(#New_Gradient_Swatch_1)"/><circle cx="176" cy="144" fill="url(#New_Gradient_Swatch_10)" r="92"/><circle cx="148" cy="124" fill="#60bbc1" r="12"/><circle cx="204" cy="124" fill="#60bbc1" r="12"/><path d="m133.762 174.26c4.938 8.075 19.388 21.74 42.238 21.74s37.3-13.666 42.238-21.741a12 12 0 1 0 -20.476-12.518c-.062.103-6.694 10.259-21.762 10.259s-21.7-10.157-21.762-10.259a12 12 0 1 0 -20.476 12.518z" fill="#60bbc1"/></g></g></svg>