<?xml version="1.0" encoding="iso-8859-1"?>
<!-- Generator: Adobe Illustrator 19.0.0, SVG Export Plug-In . SVG Version: 6.00 Build 0)  -->
<svg version="1.1" id="Capa_1" xmlns="http://www.w3.org/2000/svg" xmlns:xlink="http://www.w3.org/1999/xlink" x="0px" y="0px"
	 viewBox="0 0 476.004 476.004" style="enable-background:new 0 0 476.004 476.004;" xml:space="preserve">
<g>
	<path style="fill:#999999;" d="M360.004,190.002v-16h-40v-48h-16v48h-32v-48h-16v48h-32v-48h-16v48h-32v-48h-16v48h-32v-48h-16v48
		h-32v-48h-16v48h-40v16h40v48h-24v16h24v48h16v-48h32v48h16v-48h32v48h16v-48h32v48h16v-48h32v48h16v-48h32v48h16v-48h16v-16h-16
		v-48H360.004z M80.004,238.002v-48h32v48H80.004z M128.004,238.002v-48h32v48H128.004z M176.004,238.002v-48h32v48H176.004z
		 M224.004,238.002v-48h32v48H224.004z M304.004,238.002h-32v-48h32V238.002z"/>
	<path style="fill:#999999;" d="M346.62,446.002h-34.616v-16h34.616c4.418-0.001,8-3.583,7.999-8.001
		c0-0.766-0.11-1.528-0.327-2.263l-33.96-115.48l15.344-4.512l33.968,115.48c3.742,12.716-3.532,26.057-16.248,29.8
		C351.195,445.673,348.913,446.002,346.62,446.002z"/>
	<path style="fill:#999999;" d="M112.004,430.002h152v16h-152V430.002z"/>
</g>
<path style="fill:#E6E6E6;" d="M328.004,310.002h-272c-3.609,0.001-6.771-2.414-7.72-5.896l-48-176
	c-1.162-4.263,1.352-8.66,5.614-9.822c0.686-0.187,1.394-0.282,2.106-0.282h360v1.6l24.264-91.648
	c0.929-3.51,4.105-5.953,7.736-5.952h40v16h-33.84l-70.4,266.048C334.832,307.568,331.643,310.014,328.004,310.002z M62.116,294.002
	h259.728l42.352-160H18.484L62.116,294.002z"/>
<g>
	<path style="fill:#CF9E76;" d="M456.004,46.002L456.004,46.002c-8.837,0-16-7.163-16-16l0,0c0-8.837,7.163-16,16-16l0,0
		c8.837,0,16,7.163,16,16l0,0C472.004,38.838,464.84,46.002,456.004,46.002z"/>
	<path style="fill:#CF9E76;" d="M456.004,50.002c-11.046,0-20-8.954-20-20s8.954-20,20-20s20,8.954,20,20
		S467.049,50.002,456.004,50.002z M456.004,18.002c-6.627,0-12,5.373-12,12s5.373,12,12,12s12-5.373,12-12
		S462.631,18.002,456.004,18.002z"/>
</g>
<path style="fill:#1A1A1A;" d="M288.004,462.002L288.004,462.002c-13.255,0-24-10.745-24-24l0,0c0-13.255,10.745-24,24-24l0,0
	c13.255,0,24,10.745,24,24l0,0C312.004,451.257,301.258,462.002,288.004,462.002z"/>
<path style="fill:#333333;" d="M288.004,466.002c-15.464,0-28-12.536-28-28s12.536-28,28-28s28,12.536,28,28l0,0
	C316.004,453.466,303.468,466.002,288.004,466.002z M288.004,418.002c-11.046,0-20,8.954-20,20s8.954,20,20,20s20-8.954,20-20
	S299.049,418.002,288.004,418.002z"/>
<path style="fill:#1A1A1A;" d="M88.004,462.002L88.004,462.002c-13.255,0-24-10.745-24-24l0,0c0-13.255,10.745-24,24-24l0,0
	c13.255,0,24,10.745,24,24l0,0C112.004,451.257,101.258,462.002,88.004,462.002z"/>
<path style="fill:#333333;" d="M88.004,466.002c-15.464,0-28-12.536-28-28s12.536-28,28-28s28,12.536,28,28l0,0
	C116.004,453.466,103.468,466.002,88.004,466.002z M88.004,418.002c-11.046,0-20,8.954-20,20s8.954,20,20,20s20-8.954,20-20
	S99.049,418.002,88.004,418.002z"/>
<g>
</g>
<g>
</g>
<g>
</g>
<g>
</g>
<g>
</g>
<g>
</g>
<g>
</g>
<g>
</g>
<g>
</g>
<g>
</g>
<g>
</g>
<g>
</g>
<g>
</g>
<g>
</g>
<g>
</g>
</svg>
